name C:\Users\u0101727\Documents\MyRepositories\upper-imu-dc\Results\main_tracking\Case_48\ABD01_angularVelocities_groundFrame.mot
datacolumns 4
datarows 47
range 8.06000000 8.52000000
endheader 
time	radius_imu_x	radius_imu_y	radius_imu_z	
          8.06000000	          1.35023418	          0.17448491	         -0.49295049	
          8.07000000	          1.34458656	          0.15368533	         -0.44942328	
          8.08000000	          1.33809997	          0.13185996	         -0.40780721	
          8.09000000	          1.33088963	          0.10938973	         -0.36832955	
          8.10000000	          1.32306907	          0.08664645	         -0.33117167	
          8.11000000	          1.31475213	          0.06398595	         -0.29646840	
          8.12000000	          1.30605459	          0.04174257	         -0.26430554	
          8.13000000	          1.29709508	          0.02022559	         -0.23471782	
          8.14000000	          1.28799511	         -0.00028261	         -0.20769012	
          8.15000000	          1.27887822	         -0.01952731	         -0.18316279	
          8.16000000	          1.26986851	         -0.03728227	         -0.16104034	
          8.17000000	          1.26108881	         -0.05335138	         -0.14120171	
          8.18000000	          1.25265904	         -0.06757092	         -0.12350957	
          8.19000000	          1.24469526	         -0.07981150	         -0.10781698	
          8.20000000	          1.23730967	         -0.08997932	         -0.09397085	
          8.21000000	          1.23061140	         -0.09801712	         -0.08181351	
          8.22000000	          1.22470718	         -0.10390528	         -0.07118366	
          8.23000000	          1.21970128	         -0.10766278	         -0.06191704	
          8.24000000	          1.21569430	         -0.10934705	         -0.05384700	
          8.25000000	          1.21278058	         -0.10905179	         -0.04680707	
          8.26000000	          1.21104445	         -0.10690263	         -0.04063871	
          8.27000000	          1.21055679	         -0.10304998	         -0.03520476	
          8.28000000	          1.21137238	         -0.09765938	         -0.03040469	
          8.29000000	          1.21352755	         -0.09090096	         -0.02618612	
          8.30000000	          1.21703756	         -0.08294001	         -0.02254787	
          8.31000000	          1.22189422	         -0.07393027	         -0.01953315	
          8.32000000	          1.22806412	         -0.06401105	         -0.01721415	
          8.33000000	          1.23548866	         -0.05330811	         -0.01567084	
          8.34000000	          1.24408637	         -0.04193746	         -0.01496629	
          8.35000000	          1.25375717	         -0.03001077	         -0.01512110	
          8.36000000	          1.26438748	         -0.01764165	         -0.01608976	
          8.37000000	          1.27585427	         -0.00495274	         -0.01774379	
          8.38000000	          1.28802687	          0.00791717	         -0.01986607	
          8.39000000	          1.30076670	          0.02080692	         -0.02215842	
          8.40000000	          1.31392578	          0.03352954	         -0.02426029	
          8.41000000	          1.32734562	          0.04587194	         -0.02577538	
          8.42000000	          1.34085777	          0.05759802	         -0.02630366	
          8.43000000	          1.35428714	          0.06845495	         -0.02547620	
          8.44000000	          1.36745833	          0.07818233	         -0.02298822	
          8.45000000	          1.38020447	          0.08652324	         -0.01862506	
          8.46000000	          1.39237667	          0.09323590	         -0.01227696	
          8.47000000	          1.40385214	          0.09810512	         -0.00394104	
          8.48000000	          1.41453963	          0.10095318	          0.00628791	
          8.49000000	          1.42438116	          0.10164944	          0.01823519	
          8.50000000	          1.43335031	          0.10011741	          0.03166986	
          8.51000000	          1.44144741	          0.09633825	          0.04633128	
          8.52000000	          1.44869238	          0.09035019	          0.06195585	
